<svg xmlns="http://www.w3.org/2000/svg" width="11.355" height="16" viewBox="0 0 11.355 16"><g transform="translate(-0.5)"><path d="M6.177,0A5.684,5.684,0,0,0,.5,5.677c0,3.034,3.714,8.774,5.677,8.774s5.677-5.74,5.677-8.774A5.684,5.684,0,0,0,6.177,0Zm0,13.419c-.989,0-4.645-4.843-4.645-7.742a4.645,4.645,0,0,1,9.29,0C10.823,8.577,7.167,13.419,6.177,13.419Zm0,0"/><path d="M86.179,66.066a3.07,3.07,0,0,0-1.351.309h0a3.1,3.1,0,0,0-1.487,1.547h0a3.1,3.1,0,1,0,2.839-1.858Zm0,5.161a2.066,2.066,0,0,1-1.893-2.89h0a2.071,2.071,0,0,1,.992-1.032h0a2.044,2.044,0,0,1,.9-.206,2.065,2.065,0,1,1,0,4.129Zm0,0" transform="translate(-80.001 -64.002)"/><path d="M54.176,431.914c-.423,0-4.129-.043-4.129-1.548,0-.273.134-.666.775-.981a.516.516,0,1,1,.456.926c-.042.021-.077.04-.105.057a6.76,6.76,0,0,0,3,.513,6.76,6.76,0,0,0,3-.513c-.029-.018-.064-.037-.108-.058a.516.516,0,1,1,.454-.927c.644.315.779.708.779.983C58.3,431.87,54.6,431.914,54.176,431.914Zm0,0" transform="translate(-47.999 -415.914)"/></g></svg>