<svg xmlns="http://www.w3.org/2000/svg" width="34.023" height="30.57" viewBox="0 0 34.023 30.57"><g transform="translate(0 -2.568)"><g transform="translate(0 2.568)"><path d="M39.469,11.145H19.629a.811.811,0,0,0-.822,1.117l3.139,9.194a1.359,1.359,0,0,0,1.221.9H36.175a1.355,1.355,0,0,0,1.219-.9l2.735-9.411A.652.652,0,0,0,39.469,11.145Z" transform="translate(-6.148 -5.379)" fill="#949faf"/><circle cx="2.968" cy="2.968" r="2.968" transform="translate(12.308 24.598)" fill="#949faf"/><circle cx="2.968" cy="2.968" r="2.968" transform="translate(24.866 24.635)" fill="#949faf"/><path d="M31.4,22.563H14.04L7.091,2.568H1.681a1.681,1.681,0,1,0,0,3.361H4.7L11.65,25.924H31.4a1.681,1.681,0,1,0,0-3.361Z" transform="translate(0 -2.568)" fill="#949faf"/></g></g></svg>