<svg xmlns="http://www.w3.org/2000/svg" width="32.573" height="31.274" viewBox="0 0 32.573 31.274"><path d="M30.842,14.735a2.261,2.261,0,0,0-1.254-3.857L21.955,9.769a1,1,0,0,1-.751-.546L17.791,2.307a2.261,2.261,0,0,0-4.055,0L10.323,9.224a1,1,0,0,1-.752.546L1.937,10.879A2.261,2.261,0,0,0,.683,14.736l5.523,5.384A1,1,0,0,1,6.494,21l-1.3,7.6a2.213,2.213,0,0,0,.493,1.833,2.285,2.285,0,0,0,2.787.55L15.3,27.4a1.022,1.022,0,0,1,.929,0l6.827,3.589a2.237,2.237,0,0,0,1.052.263,2.267,2.267,0,0,0,1.735-.813,2.213,2.213,0,0,0,.493-1.833l-1.3-7.6a1,1,0,0,1,.288-.884Z" transform="translate(0.524 -0.547)" fill="#949faf" stroke="rgba(0,0,0,0)" stroke-width="1"/></svg>