<svg xmlns="http://www.w3.org/2000/svg" width="30.962" height="30.963" viewBox="0 0 30.962 30.963"><path d="M14.981,29.963A14.981,14.981,0,0,1,4.388,4.388,14.981,14.981,0,0,1,25.574,25.575,14.882,14.882,0,0,1,14.981,29.963ZM12.4,8A4.408,4.408,0,0,0,8,12.4v5.6a4.408,4.408,0,0,0,4.4,4.4h5.6a4.408,4.408,0,0,0,4.4-4.4V12.4a4.408,4.408,0,0,0-4.4-4.4Zm5.6,13.208H12.4a3.21,3.21,0,0,1-3.2-3.2V12.4a3.21,3.21,0,0,1,3.2-3.2h5.6a3.21,3.21,0,0,1,3.2,3.2v5.6A3.21,3.21,0,0,1,18.006,21.208ZM15.2,11.6a3.6,3.6,0,1,0,3.6,3.6A3.606,3.606,0,0,0,15.2,11.6Zm3.763-.96a.8.8,0,1,0,.8.8A.8.8,0,0,0,18.968,10.643ZM15.2,17.607a2.4,2.4,0,1,1,2.4-2.4A2.4,2.4,0,0,1,15.2,17.607Z" transform="translate(0.5 0.5)" fill="#949faf" stroke="rgba(0,0,0,0)" stroke-width="1"/></svg>