<svg xmlns="http://www.w3.org/2000/svg" width="30.962" height="30.962" viewBox="0 0 30.962 30.962"><g transform="translate(0.5 0.5)"><path d="M17.883,15.121l-3.5-1.635a.362.362,0,0,0-.557.356v3.081a.362.362,0,0,0,.557.356l3.5-1.635C18.189,15.5,18.189,15.264,17.883,15.121ZM15.381.4A14.981,14.981,0,1,0,30.362,15.381,14.981,14.981,0,0,0,15.381.4Zm0,21.067c-7.668,0-7.8-.691-7.8-6.086S7.713,9.3,15.381,9.3s7.8.691,7.8,6.086S23.05,21.467,15.381,21.467Z" transform="translate(-0.4 -0.4)" fill="#949faf" stroke="rgba(0,0,0,0)" stroke-width="1"/></g></svg>